#!OML:ASF F:\VICON\USERDATA\Patient Classification 1\PLAYGROUND\JustinFriday\JustinFriday.ASF
:FULLY-SPECIFIED
:DEGREES
437
root 14.7768 20.1203 51.7582 -173.612 -0.537605 -176.116
lowerback 40.3783 6.78239 6.65231
upperback 7.35471 8.83203 1.30208
thorax -10.3728 2.78252 -5.48131
lowerneck -5.14135 -5.2703 10.018
upperneck -11.5326 -7.94743 0.6184
head -3.27185 -4.6655 -1.37745
rclavicle -4.77083e-015 2.06736e-014
rhumerus 9.41208 0.665962 -87.5783
rradius 42.602
rwrist 23.1463
rhand -34.2248 -21.3838
rfingers 7.12502
rthumb -7.39653 -51.2345
lclavicle -4.77083e-015 2.06736e-014
lhumerus 58.1228 -22.6034 63.0552
lradius 75.6106
lwrist -25.9841
lhand -9.90832 -2.80878
lfingers 7.12502
lthumb 16.0719 26.5447
rfemur -55.3077 -0.878128 30.2352
rtibia 74.6875
rfoot -26.1905 -14.5198
rtoes 14.6496
lfemur -32.3725 10.0302 -12.6287
ltibia 52.7548
lfoot -5.09809 10.8818
ltoes 5.09658
438
root 14.8315 20.2106 51.733 -173.498 -1.29878 -175.773
lowerback 40.2681 6.31756 6.99686
upperback 7.37062 8.38996 1.34738
thorax -10.3219 2.57949 -5.42255
lowerneck -4.99244 -4.93676 9.34739
upperneck -12.3004 -7.50705 0.878219
head -3.49399 -4.48706 -1.16718
rclavicle 1.59028e-014 5.56597e-015
rhumerus 9.63444 1.31484 -87.8
rradius 42.0382
rwrist 23.2849
rhand -34.2467 -22.0612
rfingers 7.12502
rthumb -7.41771 -51.9112
lclavicle 1.59028e-014 5.56597e-015
lhumerus 58.298 -22.1443 63.1194
lradius 74.6905
lwrist -25.3631
lhand -8.12078 -1.64324
lfingers 7.12502
lthumb 17.7926 27.5628
rfemur -54.6206 -1.18792 30.8011
rtibia 73.5552
rfoot -26.4014 -14.3247
rtoes 15.5474
lfemur -34.2881 10.7292 -12.3429
ltibia 55.9335
lfoot -5.83669 10.4381
ltoes 13.0702
439
root 14.8708 20.2886 51.7174 -173.234 -2.07616 -175.351
lowerback 40.0241 6.04266 7.55232
upperback 7.332 8.31187 1.46811
thorax -10.2296 2.5524 -5.53057
lowerneck -5.17932 -4.92235 9.18899
upperneck -12.8496 -7.55921 0.868662
head -3.64868 -4.55213 -1.13529
rclavicle 2.54444e-014 4.45278e-014
rhumerus 9.73875 1.377 -87.6134
rradius 41.4491
rwrist 23.2811
rhand -34.5876 -22.6067
rfingers 7.12502
rthumb -7.74672 -52.4448
lclavicle 2.54444e-014 4.45278e-014
lhumerus 58.6374 -22.3429 63.3424
lradius 73.833
lwrist -25.0812
lhand -6.78257 -1.61438
lfingers 7.12502
lthumb 19.0799 27.4698
rfemur -54.2777 -1.67538 31.3904
rtibia 72.4115
rfoot -26.3201 -14.3067
rtoes 15.7473
lfemur -36.57 11.1568 -12.1059
ltibia 59.2851
lfoot -6.81321 10.8251
ltoes 14.4198
440
root 14.9247 20.3793 51.6935 -173.28 -2.22569 -175.245
lowerback 40.1503 5.98879 7.43533
upperback 7.33565 8.18846 1.44479
thorax -10.2952 2.48863 -5.45467
lowerneck -5.34254 -4.7346 8.68852
upperneck -13.1415 -7.3473 0.949157
head -3.68036 -4.45733 -1.02718
rclavicle -5.08889e-014 5.88403e-014
rhumerus 9.77109 2.18393 -87.5744
rradius 40.9292
rwrist 22.8806
rhand -34.7476 -22.8665
rfingers 7.12502
rthumb -7.90121 -52.6989
lclavicle -5.08889e-014 5.88403e-014
lhumerus 58.8346 -22.3142 63.0751
lradius 73.0267
lwrist -24.5707
lhand -6.13286 -1.59263
lfingers 7.12502
lthumb 19.7046 27.4287
rfemur -53.4663 -1.6582 31.6549
rtibia 71.3025
rfoot -25.8821 -14.7514
rtoes 15.2499
lfemur -38.1909 12.1424 -12.0994
ltibia 62.5325
lfoot -7.84294 12.0865
ltoes 12.2235
441
root 14.9705 20.4678 51.6733 -173.261 -2.79532 -175.337
lowerback 40.2965 5.76784 7.41378
upperback 7.30914 7.90994 1.3828
thorax -10.4001 2.35749 -5.41039
lowerneck -5.54644 -4.62771 8.09977
upperneck -13.3002 -7.22451 1.11535
head -3.65418 -4.39448 -0.877607
rclavicle 1.05753e-013 -4.69132e-014
rhumerus 9.81764 2.79376 -87.4967
rradius 40.4095
rwrist 22.3808
rhand -34.4321 -22.7081
rfingers 7.12502
rthumb -7.5966 -52.5517
lclavicle 1.05753e-013 -4.69132e-014
lhumerus 59.1381 -22.425 62.4891
lradius 72.4616
lwrist -24.1334
lhand -5.93415 -1.67749
lfingers 7.12502
lthumb 19.8957 27.3241
rfemur -52.8633 -2.12521 31.74
rtibia 70.2646
rfoot -25.3557 -14.984
rtoes 14.8256
lfemur -39.9935 12.512 -12.2999
ltibia 65.7272
lfoot -8.82471 12.023
ltoes 10.0626
442
root 15.0122 20.5504 51.6584 -172.976 -3.53452 -175.183
lowerback 39.8835 5.28426 7.7314
upperback 7.3432 7.41862 1.30997
thorax -10.2274 2.15643 -5.43486
lowerneck -5.36149 -4.4191 7.15136
upperneck -13.8483 -6.89136 1.7338
head -3.79451 -4.24801 -0.502613
rclavicle 9.85972e-014 -7.95139e-016
rhumerus 10.112 3.47578 -87.6731
rradius 39.6594
rwrist 22.1504
rhand -34.2349 -22.3348
rfingers 7.12502
rthumb -7.40631 -52.1852
lclavicle 9.85972e-014 -7.95139e-016
lhumerus 59.1619 -22.2771 62.1844
lradius 71.8991
lwrist -24.7368
lhand -5.43435 -2.79889
lfingers 7.12502
lthumb 20.376 26.1521
rfemur -52.6223 -2.6999 32.1277
rtibia 69.2816
rfoot -25.0327 -14.8784
rtoes 14.9739
lfemur -42.2448 12.7247 -12.284
ltibia 68.9136
lfoot -9.31405 10.9915
ltoes 13.7678
443
root 15.0596 20.6313 51.6399 -172.896 -3.83811 -175.122
lowerback 39.7369 5.08697 7.68505
upperback 7.42639 7.11363 1.23547
thorax -10.1162 2.02644 -5.36064
lowerneck -5.20275 -4.32242 6.25157
upperneck -14.4305 -6.71117 2.42072
head -3.95545 -4.18529 -0.109255
rclavicle 2.78299e-014 1.51076e-014
rhumerus 10.4551 4.02918 -87.8612
rradius 38.8349
rwrist 22.3627
rhand -34.44 -22.4744
rfingers 7.12502
rthumb -7.60424 -52.3177
lclavicle 2.78299e-014 1.51076e-014
lhumerus 59.1531 -22.1842 62.2773
lradius 71.2428
lwrist -25.8186
lhand -4.5626 -4.24002
lfingers 7.12502
lthumb 21.2136 24.6192
rfemur -52.0883 -2.96186 32.3885
rtibia 68.2667
rfoot -24.243 -14.9388
rtoes 15.195
lfemur -44.0922 13.1436 -12.3013
ltibia 71.9749
lfoot -10.0618 9.98243
ltoes 14.4531
444
root 15.1057 20.6842 51.6177 -173.035 -3.94956 -175.073
lowerback 39.9013 4.99095 7.52332
upperback 7.50179 6.88595 1.16143
thorax -10.1232 1.91281 -5.26979
lowerneck -5.14217 -4.17895 5.39076
upperneck -14.741 -6.47461 2.95417
head -4.01363 -4.07222 0.215577
rclavicle 9.54166e-015 -6.91771e-014
rhumerus 10.6631 4.66653 -87.9767
rradius 38.1558
rwrist 22.7266
rhand -34.5349 -23.0551
rfingers 7.12502
rthumb -7.69588 -52.895
lclavicle 9.54166e-015 -6.91771e-014
lhumerus 59.047 -22.0341 62.1162
lradius 70.8191
lwrist -26.0274
lhand -4.16386 -4.70223
lfingers 7.12502
lthumb 21.5966 24.1135
rfemur -51.4143 -3.07649 32.6103
rtibia 67.3521
rfoot -23.2892 -15.1076
rtoes 15.1133
lfemur -45.6611 13.447 -12.2472
ltibia 75.0376
lfoot -11.1212 8.70564
ltoes 14.0111
445
root 15.1559 20.7885 51.5968 -173.232 -3.83594 -174.896
lowerback 40.1161 4.92281 7.39864
upperback 7.56241 6.70197 1.05276
thorax -10.1488 1.8143 -5.25337
lowerneck -4.80547 -3.94531 4.91741
upperneck -15.489 -6.17091 3.10603
head -4.32054 -3.95875 0.372499
rclavicle -1.03368e-014 -3.18055e-015
rhumerus 10.9138 5.53764 -88.1618
rradius 37.4479
rwrist 23.1299
rhand -34.3532 -23.738
rfingers 7.12502
rthumb -7.52047 -53.5843
lclavicle -1.03368e-014 -3.18055e-015
lhumerus 58.6923 -21.8002 61.7538
lradius 70.6179
lwrist -25.2742
lhand -4.54037 -4.20526
lfingers 7.12502
lthumb 21.235 24.6516
rfemur -50.3724 -2.92898 32.9176
rtibia 66.2157
rfoot -23.6139 -14.7447
rtoes 16.9472
lfemur -46.8761 14.6449 -12.1161
ltibia 77.7347
lfoot -12.1581 6.70809
ltoes 13.549
446
root 15.1956 20.8849 51.5712 -173.098 -4.14257 -175.035
lowerback 39.8208 4.6035 7.31159
upperback 7.63007 6.22056 0.825268
thorax -10.0157 1.6172 -5.2509
lowerneck -4.76478 -3.63661 3.82793
upperneck -15.7372 -5.69926 3.75073
head -4.35116 -3.71895 0.768192
rclavicle 5.24792e-014 -4.45278e-014
rhumerus 11.1532 6.45035 -88.3687
rradius 36.642
rwrist 23.5012
rhand -34.0695 -23.2281
rfingers 7.12502
rthumb -7.24661 -53.0841
lclavicle 5.24792e-014 -4.45278e-014
lhumerus 58.103 -21.5233 61.458
lradius 70.4602
lwrist -24.4775
lhand -5.19637 -3.85859
lfingers 7.12502
lthumb 20.6047 25.0678
rfemur -49.8294 -3.12844 32.8918
rtibia 65.2966
rfoot -25.0807 -13.7481
rtoes 21.8777
lfemur -48.5452 15.0815 -12.3833
ltibia 80.4288
lfoot -13.433 5.80288
ltoes 11.0868
